<svg width="33" height="32" viewBox="0 0 33 32" fill="none" xmlns="http://www.w3.org/2000/svg">
<rect x="1.75" y="1" width="30" height="30" rx="4" fill="#1B1A17" stroke="#A35709" stroke-width="2"/>
<path fill-rule="evenodd" clip-rule="evenodd" d="M13.8407 12.121C13.5729 11.8532 13.1387 11.8532 12.8709 12.121C12.6031 12.3888 12.6031 12.8229 12.8709 13.0907L15.0731 15.2929C15.4636 15.6834 15.4636 16.3166 15.0731 16.7071L12.871 18.9093C12.6032 19.177 12.6032 19.6112 12.871 19.879C13.1388 20.1468 13.5729 20.1468 13.8407 19.879L16.0429 17.6769C16.4334 17.2864 17.0666 17.2864 17.4571 17.6769L19.6592 19.879C19.9269 20.1467 20.3611 20.1467 20.6289 19.879C20.8967 19.6112 20.8967 19.177 20.6289 18.9092L18.4268 16.7071C18.0363 16.3166 18.0363 15.6834 18.4268 15.2929L20.629 13.0908C20.8967 12.823 20.8967 12.3888 20.629 12.121C20.3612 11.8532 19.927 11.8532 19.6592 12.121L17.4571 14.3232C17.0666 14.7137 16.4334 14.7137 16.0429 14.3232L13.8407 12.121Z" fill="#FF8303"/>
</svg>
