<svg width="70" height="70" viewBox="0 0 70 70" fill="none" xmlns="http://www.w3.org/2000/svg">
<rect x="1" y="1" width="68" height="68" rx="7" fill="#1B1A17" stroke="#FF8303" stroke-width="2"/>
<path d="M15.3848 30.0469H17.4287V36.623C17.4287 37.3887 17.2646 38.0335 16.9365 38.5576C16.613 39.0817 16.1641 39.4759 15.5898 39.7402C15.0202 40.0046 14.3639 40.1367 13.6211 40.1367C12.8783 40.1367 12.2174 40.0046 11.6387 39.7402C11.0645 39.4759 10.6133 39.0817 10.2852 38.5576C9.96159 38.0335 9.7998 37.3887 9.7998 36.623V30.0469H11.8506V36.623C11.8506 37.0697 11.9212 37.4342 12.0625 37.7168C12.2038 37.9993 12.4066 38.2067 12.6709 38.3389C12.9398 38.471 13.2565 38.5371 13.6211 38.5371C13.9948 38.5371 14.3115 38.471 14.5713 38.3389C14.8356 38.2067 15.0361 37.9993 15.1729 37.7168C15.3141 37.4342 15.3848 37.0697 15.3848 36.623V30.0469ZM22.9932 36.4521H20.457V34.8525H22.9932C23.3851 34.8525 23.7041 34.7887 23.9502 34.6611C24.1963 34.529 24.3763 34.3467 24.4902 34.1143C24.6042 33.8818 24.6611 33.6198 24.6611 33.3281C24.6611 33.0319 24.6042 32.7562 24.4902 32.501C24.3763 32.2458 24.1963 32.0407 23.9502 31.8857C23.7041 31.7308 23.3851 31.6533 22.9932 31.6533H21.168V40H19.1172V30.0469H22.9932C23.7725 30.0469 24.4401 30.1882 24.9961 30.4707C25.5566 30.7487 25.985 31.1338 26.2812 31.626C26.5775 32.1182 26.7256 32.681 26.7256 33.3145C26.7256 33.957 26.5775 34.513 26.2812 34.9824C25.985 35.4518 25.5566 35.8141 24.9961 36.0693C24.4401 36.3245 23.7725 36.4521 22.9932 36.4521ZM31.1963 40H29.0293L29.043 38.4004H31.1963C31.734 38.4004 32.1875 38.2796 32.5566 38.0381C32.9258 37.792 33.2038 37.4342 33.3906 36.9648C33.582 36.4954 33.6777 35.9281 33.6777 35.2627V34.7773C33.6777 34.2669 33.623 33.818 33.5137 33.4307C33.4089 33.0433 33.2516 32.7174 33.042 32.4531C32.8324 32.1888 32.5749 31.9906 32.2695 31.8584C31.9642 31.7217 31.6133 31.6533 31.2168 31.6533H28.9883V30.0469H31.2168C31.8822 30.0469 32.4906 30.1608 33.042 30.3887C33.598 30.612 34.0788 30.9333 34.4844 31.3525C34.89 31.7718 35.2021 32.2731 35.4209 32.8564C35.6442 33.4352 35.7559 34.0801 35.7559 34.791V35.2627C35.7559 35.9691 35.6442 36.6139 35.4209 37.1973C35.2021 37.7806 34.89 38.2819 34.4844 38.7012C34.0833 39.1159 33.6025 39.4372 33.042 39.665C32.486 39.8883 31.8708 40 31.1963 40ZM30.1914 30.0469V40H28.1406V30.0469H30.1914ZM41.1426 31.749L38.4355 40H36.2549L39.9531 30.0469H41.3408L41.1426 31.749ZM43.3916 40L40.6777 31.749L40.459 30.0469H41.8604L45.5791 40H43.3916ZM43.2686 36.2949V37.9014H38.0117V36.2949H43.2686ZM50.1045 30.0469V40H48.0605V30.0469H50.1045ZM53.167 30.0469V31.6533H45.0459V30.0469H53.167ZM61.0146 38.4004V40H55.7168V38.4004H61.0146ZM56.3867 30.0469V40H54.3359V30.0469H56.3867ZM60.3242 34.1006V35.6592H55.7168V34.1006H60.3242ZM61.0078 30.0469V31.6533H55.7168V30.0469H61.0078Z" fill="white"/>
</svg>
