<svg width="36" height="36" viewBox="0 0 36 36" fill="none" xmlns="http://www.w3.org/2000/svg">
<rect x="0.5" y="0.5" width="35" height="35" rx="5.5" fill="#242320" stroke="#A35709"/>
<path d="M19.6328 14.5469V23H17.375V14.5469H19.6328ZM17.2344 12.3438C17.2344 12.0156 17.349 11.7448 17.5781 11.5312C17.8073 11.3177 18.1146 11.2109 18.5 11.2109C18.8802 11.2109 19.1849 11.3177 19.4141 11.5312C19.6484 11.7448 19.7656 12.0156 19.7656 12.3438C19.7656 12.6719 19.6484 12.9427 19.4141 13.1562C19.1849 13.3698 18.8802 13.4766 18.5 13.4766C18.1146 13.4766 17.8073 13.3698 17.5781 13.1562C17.349 12.9427 17.2344 12.6719 17.2344 12.3438Z" fill="white"/>
</svg>
